<?xml version="1.0" standalone="no"?><!DOCTYPE svg PUBLIC "-//W3C//DTD SVG 1.1//EN" "http://www.w3.org/Graphics/SVG/1.1/DTD/svg11.dtd"><svg t="1557523910727" class="icon" style="" viewBox="0 0 1024 1024" version="1.1" xmlns="http://www.w3.org/2000/svg" p-id="7852" xmlns:xlink="http://www.w3.org/1999/xlink" width="200" height="200"><defs><style type="text/css"></style></defs><path d="M881.7 260.3H143.1c-25.5 0-46.2-20.7-46.2-46.2s20.7-46.2 46.2-46.2h738.6c25.5 0 46.2 20.7 46.2 46.2s-20.7 46.2-46.2 46.2zM881.7 563.9H143.1c-25.5 0-46.2-20.7-46.2-46.2 0-25.5 20.7-46.2 46.2-46.2h738.6c25.5 0 46.2 20.7 46.2 46.2-0.1 25.6-20.7 46.2-46.2 46.2zM881.7 867.6H143.1c-25.5 0-46.2-20.7-46.2-46.2 0-25.5 20.7-46.2 46.2-46.2h738.6c25.5 0 46.2 20.7 46.2 46.2-0.1 25.5-20.7 46.2-46.2 46.2z" p-id="7853" fill="#ffffff"></path></svg>