<?xml version="1.0" standalone="no"?><!DOCTYPE svg PUBLIC "-//W3C//DTD SVG 1.1//EN" "http://www.w3.org/Graphics/SVG/1.1/DTD/svg11.dtd"><svg t="1560762800663" class="icon" style="" viewBox="0 0 1024 1024" version="1.1" xmlns="http://www.w3.org/2000/svg" p-id="1992" xmlns:xlink="http://www.w3.org/1999/xlink" width="200" height="200"><defs><style type="text/css"></style></defs><path d="M235 469.15q21 21 21 51v368q0 30-21 51t-51 21h-48q-30 0-51-21t-21-51v-368q0-30 21-51t51-21h48q30 0 51 21z m725 14v29a2.89 2.89 0 0 0-1 2q-7 32-26 53-2 3 0 9 0 2 3.5 16t3.5 21q1 36-25 69-5 6-2 13 6 19 7 29 2 39-26 76-3 5-2 9 8 21 6 50-3 34-22 58t-51 34q-26 9-66 9H369q-30 0-51.5-21t-21.5-51q1-113 1-397 0-17 7-29t24-30q24-26 28-32 3-5 76-130a56.65 56.65 0 0 0 8-33q-1-20-2-58t-1-48q-1-36 33-54 49-25 102-3 26 11 36 39 30 80 36 97 16 47 4 109-2 12-4.5 26t-5 30.5q-2.5 16.5-4.5 26.5-1 7 0 8.5t8 1.5h226a152.25 152.25 0 0 1 42 6q36 13 47 56l3 9z" p-id="1993" fill="#bfbfbf"></path></svg>