<?xml version="1.0" standalone="no"?><!DOCTYPE svg PUBLIC "-//W3C//DTD SVG 1.1//EN" "http://www.w3.org/Graphics/SVG/1.1/DTD/svg11.dtd"><svg t="1559979537453" class="icon" style="" viewBox="0 0 1024 1024" version="1.1" xmlns="http://www.w3.org/2000/svg" p-id="9974" xmlns:xlink="http://www.w3.org/1999/xlink" width="200" height="200"><defs><style type="text/css"></style></defs><path d="M533.845333 998.468267a40.96 40.96 0 1 1-49.698133-65.1264l219.886933-167.662934h141.7216a27.306667 27.306667 0 0 0 27.306667-27.306666V207.6672a27.306667 27.306667 0 0 0-27.306667-27.306667H178.244267a27.306667 27.306667 0 0 0-27.306667 27.306667v530.705067c0 15.018667 12.219733 27.306667 27.306667 27.306666h262.417066a40.96 40.96 0 1 1 0 81.92H178.244267a109.226667 109.226667 0 0 1-109.226667-109.226666V207.6672a109.226667 109.226667 0 0 1 109.226667-109.226667h667.511466a109.226667 109.226667 0 0 1 109.226667 109.226667v530.705067a109.226667 109.226667 0 0 1-109.226667 109.226666h-114.005333l-197.973333 150.869334zM266.990933 416.631467a40.96 40.96 0 1 1 0-81.92h485.239467a40.96 40.96 0 1 1 0 81.92H267.0592z m0 155.921066a40.96 40.96 0 1 1 0-81.92H597.333333a40.96 40.96 0 1 1 0 81.92H267.0592z" p-id="9975" fill="#bfbfbf"></path></svg>