<?xml version="1.0" standalone="no"?><!DOCTYPE svg PUBLIC "-//W3C//DTD SVG 1.1//EN" "http://www.w3.org/Graphics/SVG/1.1/DTD/svg11.dtd"><svg t="1560085491391" class="icon" style="" viewBox="0 0 1024 1024" version="1.1" xmlns="http://www.w3.org/2000/svg" p-id="11311" xmlns:xlink="http://www.w3.org/1999/xlink" width="200" height="200" ><defs><style type="text/css"></style></defs><path d="M512.512 951.808c-19.968 0-35.84 15.872-36.352 35.84 0 19.968 15.872 35.84 35.84 36.352 19.968 0 35.84-15.872 36.352-35.84s-15.872-35.84-35.84-36.352z m0-179.2c-19.968 0-35.84 15.872-35.84 35.84s15.872 35.84 35.84 35.84 35.84-15.872 35.84-35.84v-0.512c0-19.968-15.872-35.84-35.84-35.84v0.512z m-35.84-150.528v-502.272l-235.008 235.52c-14.336 14.336-37.376 14.336-51.2 0-14.336-14.336-14.336-37.376 0-51.2l292.864-291.84c15.872-15.872 41.984-15.872 58.368 0l22.016 22.016 270.848 270.336c14.336 13.824 14.336 36.864 0.512 51.2l-0.512 0.512c-13.824 14.336-36.352 14.336-50.688 0.512l-0.512-0.512-233.472-233.984v500.736c0 19.968-15.872 35.84-35.84 35.84-21.504-0.512-37.376-16.896-37.376-36.864z" p-id="11312" fill="#ccc"></path></svg>