<?xml version="1.0" standalone="no"?><!DOCTYPE svg PUBLIC "-//W3C//DTD SVG 1.1//EN" "http://www.w3.org/Graphics/SVG/1.1/DTD/svg11.dtd"><svg t="1560698895828" class="icon" style="" viewBox="0 0 1024 1024" version="1.1" xmlns="http://www.w3.org/2000/svg" p-id="2005" xmlns:xlink="http://www.w3.org/1999/xlink" width="200" height="200"><defs><style type="text/css"></style></defs><path d="M327.168 652.8c-19.2-19.2-19.2-51.2 0-70.4l537.6-550.4c19.2-19.2 51.2-19.2 70.4 0s19.2 51.2 0 70.4l-537.6 550.4c-19.2 19.2-51.2 19.2-70.4 0z m-192-537.6v755.2h736V467.2c0-25.6 19.2-51.2 51.2-51.2 25.6 0 51.2 19.2 51.2 51.2v454.4c0 12.8-6.4 25.6-12.8 38.4-6.4 6.4-19.2 12.8-32 12.8h-838.4c-12.8 0-25.6-6.4-32-12.8-12.8-12.8-19.2-25.6-19.2-38.4V64c0-12.8 6.4-25.6 12.8-38.4s19.2-12.8 32-12.8h441.6c25.6 0 51.2 25.6 51.2 51.2s-19.2 51.2-44.8 51.2h-396.8z" p-id="2006" fill="#bfbfbf"></path></svg>