<?xml version="1.0" standalone="no"?><!DOCTYPE svg PUBLIC "-//W3C//DTD SVG 1.1//EN" "http://www.w3.org/Graphics/SVG/1.1/DTD/svg11.dtd"><svg t="1557517012235" class="icon" style="" viewBox="0 0 1024 1024" version="1.1" xmlns="http://www.w3.org/2000/svg" p-id="2809" xmlns:xlink="http://www.w3.org/1999/xlink" width="200" height="200"><defs><style type="text/css"></style></defs><path d="M777.71 786.29V443.42c0-150.84-123.42-274.29-274.29-274.29-150.84 0-274.29 123.45-274.29 274.29v342.87H160.58V443.42c0-192 150.84-342.84 342.84-342.84 192 0 342.87 150.84 342.87 342.84v342.87h-68.58zM572 107.42c157.71 34.29 274.29 171.45 274.29 336v342.87h68.58v68.58h-274.29A137.55 137.55 0 0 1 503.42 992a137.55 137.55 0 0 1-137.13-137.13H92v-68.58h68.58V443.42c0-164.55 116.55-301.71 274.29-336v-6.84C434.87 59.42 462.29 32 503.42 32 544.58 32 572 59.42 572 107.42c0-6.84 0 0 0 0zM434.87 854.9c0 41.13 27.42 68.55 68.55 68.55 41.16 0 68.58-27.42 68.58-68.55h-137.13zM229.1 786.29h548.58V443.42c0-150.84-123.42-274.29-274.29-274.29-150.84 0-274.29 123.45-274.29 274.29v342.87zM434.9 230.87l34.26 61.71c-61.71 34.29-96 75.42-96 116.55H304.58c0-68.55 48-130.26 130.29-178.26z" fill="#848a8e" p-id="2810"></path></svg>